<svg id="apple" xmlns="http://www.w3.org/2000/svg" width="13.401" height="16.927" viewBox="0 0 13.401 16.927">
  <path id="Path_206" data-name="Path 206" d="M50.465,131.029c-2.432-.015-4.443-5.174-4.443-7.8,0-4.292,3.1-5.232,4.291-5.232a4.786,4.786,0,0,1,1.619.414,3.513,3.513,0,0,0,.925.276,2.8,2.8,0,0,0,.663-.223,5.153,5.153,0,0,1,2-.5h0a4.038,4.038,0,0,1,3.429,1.8l.25.391-.36.282a3.166,3.166,0,0,0-1.452,2.6,2.936,2.936,0,0,0,1.573,2.709c.225.141.459.286.459.6,0,.207-1.593,4.663-3.906,4.663a3.047,3.047,0,0,1-1.319-.333,2.593,2.593,0,0,0-1.174-.294,2.93,2.93,0,0,0-.93.261,4.412,4.412,0,0,1-1.613.391Z" transform="translate(-46.022 -114.101)" fill="#1a051d"/>
  <path id="Path_207" data-name="Path 207" d="M258.3,0c.062,2.226-1.53,3.77-3.12,3.673A3.547,3.547,0,0,1,258.3,0Z" transform="translate(-248.53)" fill="#1a051d"/>
</svg>
