<?xml version="1.0" encoding="utf-8"?>
<!-- Generator: Adobe Illustrator 24.3.0, SVG Export Plug-In . SVG Version: 6.00 Build 0)  -->
<svg version="1.1" id="Layer_1" xmlns="http://www.w3.org/2000/svg" xmlns:xlink="http://www.w3.org/1999/xlink" x="0px" y="0px"
	 viewBox="0 0 91.9 83.4" style="enable-background:new 0 0 91.9 83.4;" xml:space="preserve">
<style type="text/css">
	.st0{fill-rule:evenodd;clip-rule:evenodd;fill:#312418;}
	.st1{fill:#79AFBC;}
	.st2{fill:#312418;}
</style>
<path class="st0" d="M-131.6-2.2"/>
<path class="st1" d="M77.1,64.3l-8.5-45H25.9l-8.5,45c-0.9,3.9,1,8,4.4,9.3l22.6,9.1c0.8,0.3,1.5,0.5,2.3,0.5c0.7,0,1.5-0.1,2.2-0.4
	l23.6-9.1C76,72.4,77.9,68.3,77.1,64.3L77.1,64.3z"/>
<path class="st2" d="M62.5,33.9c0-0.1-0.1-0.2-0.1-0.3l-0.7-0.7c-0.3-0.3-0.6-0.8-0.5-1.3c0-0.3,0.1-0.6,0.2-0.9l0.4-0.7
	c0.1-0.1,0.1-0.2,0.1-0.4c0-0.4-0.3-0.8-0.8-0.8h-0.3c-0.8,0.3-1.7,0.4-2.7,0.5c-2.5,0.3-5.2,0.2-8.1-0.3
	c-14.3-2.8-16.4-9.5-15.9-12.5c0.2-1.2,0.8-2.2,1.7-3.1c2-2,6.4-3.3,11.6-3c1.2,0,3.5,0.4,3.5,0.4c0.3,0,0.5-0.1,0.6-0.3
	c0.3-0.6-0.8-1-1.6-1.6c-2.2-1.7,3.5-3,3.7-3.7c0.4-1.1-2.2-0.9-3.4-1.5c-1.8-1.1,2.5-2.9,2.8-3.2C53.2,0.3,53.1,0,52.7,0
	C40.1-0.3,30.5,8.3,30.9,17.3c0.5,9.6,12.9,17.2,27.8,17c0.9,0,2.9,0,3.4-0.4C62.4,34.1,62.5,34,62.5,33.9L62.5,33.9z M65.9,39.8
	c0-0.8-0.6-1.4-1.4-1.5l-16-2.2h-0.1c-0.3,0-0.5,0.2-0.5,0.5v0.3c0,1.7,1.2,3,2.8,3.3v2.2c0,1.5,1.2,2.7,2.7,2.7h0.3L64,43.9
	c0.7-0.1,1.2-0.6,1.3-1.2l0.6-2.6V39.8L65.9,39.8z M55.3,53.3c0.6-0.2,0.9-0.8,0.8-1.4c0-0.2-0.1-0.4-0.2-0.5
	c-1.1-2-3.5-5.7-10.6-3.4c0,0-13.4,4.4-13.8,10.9C19.6,64.2,8.9,71.8,0,81l7.1,2.2c0,0,0.7,0.2,1.2,0.2s1-0.3,1.4-0.7
	C22.3,68.9,33.8,59.6,55,53.4C55.1,53.3,55.3,53.3,55.3,53.3z"/>
<path class="st2" d="M69.9,52.5c-18.9,2.2-34.3,11-34.3,11c-0.2,0.1-0.4,0.4-0.4,0.7c0,0.2,0.2,0.5,0.5,0.8
	c2.3,2.6,5.6,4.2,19.1-1.5c2.4-1,3.6-2.7,3.5-5.1c0,0,4-1.1,9.6-1.2c10.2-0.2,14,1.4,19.2,2.1h0.5c0.8-0.1,1.4-0.5,1.8-1.2l2.5-6.1
	C86.2,51.7,79,51.5,69.9,52.5L69.9,52.5z"/>
<path class="st2" d="M218.3,48c0-1.8,1.4-3.1,3.2-3.1s3.2,1.3,3.2,3.1s-1.4,3.1-3.2,3.1S218.3,49.8,218.3,48z M223.9,48
	c0-1.6-1-2.5-2.5-2.5c-1.4,0-2.4,0.9-2.4,2.5c0,1.5,1,2.4,2.4,2.4S223.9,49.5,223.9,48z M222.9,49.5h-1l-0.4-0.8h-0.4v0.8h-0.9v-3.1
	h1.3c0.8,0,1.3,0.6,1.3,1.1c0,0.4-0.2,0.8-0.5,1L222.9,49.5z M221.6,48c0.1,0,0.4-0.1,0.4-0.4c0-0.3-0.2-0.4-0.4-0.4h-0.4V48
	C221.2,48,221.6,48,221.6,48z"/>
</svg>
