<svg id="Group_341" data-name="Group 341" xmlns="http://www.w3.org/2000/svg" width="17.984" height="13.543" viewBox="0 0 17.984 13.543">
  <path id="Path_222" data-name="Path 222" d="M43.019,76.831a19.468,19.468,0,0,1-4.7-2.972,2.62,2.62,0,0,1-.918-1.788,3.879,3.879,0,0,1,1.07-2.531c-.141-.179-.244-.307-.3-.376a.072.072,0,0,0-.107-.005,4.406,4.406,0,0,0-1.418,2.912,2.62,2.62,0,0,0,.918,1.788c.036.028,1.232,1.287,5.518,3.385.011,0,.051.016.075-.013a.058.058,0,0,0,.016-.067Q43.1,77,43.019,76.831Z" transform="translate(-35.344 -66.697)" fill="#d84848"/>
  <path id="Path_223" data-name="Path 223" d="M3.894,204.18a3.423,3.423,0,0,1-1.069-.233,3.3,3.3,0,0,1-2-3.725l-.585-.317a.071.071,0,0,0-.1.042,3.3,3.3,0,0,0,1.936,4,3.423,3.423,0,0,0,1.069.233c.036.007.662.008,1.431.007C4.181,204.187,3.917,204.185,3.894,204.18Z" transform="translate(0 -192.921)" fill="#d84848"/>
  <path id="Path_224" data-name="Path 224" d="M141.95,9.646a22.249,22.249,0,0,1-2.878-5.7v0A2.681,2.681,0,0,1,140.892.452L141.113.4c-.022-.038-.04-.067-.053-.087a.071.071,0,0,0-.068-.031c-.269.034-.855.167-.855.167a2.681,2.681,0,0,0-1.821,3.493v0c.494,2.189,2.92,5.783,3.441,6.537.036.037.066.021.066.021a.067.067,0,0,0,.051-.069h0C141.9,10.168,141.928,9.9,141.95,9.646Z" transform="translate(-133.335 -0.285)" fill="#d84848"/>
  <path id="Path_225" data-name="Path 225" d="M265.139.463c-.157-.035-.389-.083-.632-.12-.18-.027-1.656,2.557-.893,10.158a.071.071,0,0,0,.043.061.063.063,0,0,0,.08-.03h0c.114-.164.312-.455.558-.831C263.787,3.634,264.761,1.025,265.139.463Z" transform="translate(-254.145 -0.341)" fill="#d84848"/>
  <path id="Path_226" data-name="Path 226" d="M307,332.38l-.745-.026h0l-.009,0a.071.071,0,0,0-.048.1.058.058,0,0,0,.015.019h0a14.562,14.562,0,0,0,2.934,1.735,1.6,1.6,0,0,0,.88-.024A16.172,16.172,0,0,1,307,332.38Z" transform="translate(-295.457 -320.714)" fill="#d84848"/>
  <path id="Path_227" data-name="Path 227" d="M311,200.233a3.168,3.168,0,0,0-.117-.6.072.072,0,0,0-.1-.043c-.618.334-4.851,2.629-7.12,4.158h0a.067.067,0,0,0,.028.123l1.1,0C306.651,202.663,309.413,201.11,311,200.233Z" transform="translate(-293.021 -192.62)" fill="#d84848"/>
  <path id="Path_228" data-name="Path 228" d="M296.666,69.513c-.153-.179-.282-.309-.352-.377a.072.072,0,0,0-.106.006,40.893,40.893,0,0,0-4.993,7.979h0a.069.069,0,0,0,.091.1q.426-.208.81-.4A41.422,41.422,0,0,1,296.666,69.513Z" transform="translate(-281.038 -66.675)" fill="#d84848"/>
</svg>
