<svg xmlns="http://www.w3.org/2000/svg" width="18" height="18" viewBox="0 0 18 18">
  <path id="spotify" d="M9,0a9,9,0,1,0,9,9A9,9,0,0,0,9,0Zm3.917,13.061a.615.615,0,0,1-.842.221,9.06,9.06,0,0,0-4.769-1.058,11.829,11.829,0,0,0-2.474.327.615.615,0,0,1-.326-1.187A12.815,12.815,0,0,1,7.234,11a12.015,12.015,0,0,1,2.628.19A8.87,8.87,0,0,1,12.7,12.22.615.615,0,0,1,12.917,13.061Zm1.144-2.376a.729.729,0,0,1-1,.262A10.731,10.731,0,0,0,7.415,9.693a14.015,14.015,0,0,0-2.93.387A.729.729,0,0,1,4.1,8.674,15.176,15.176,0,0,1,7.33,8.237a14.235,14.235,0,0,1,3.113.225A10.508,10.508,0,0,1,13.8,9.688.729.729,0,0,1,14.061,10.685Zm.7-2.161a.89.89,0,0,1-.45-.122C9.76,5.74,3.852,7.323,3.793,7.339a.894.894,0,1,1-.475-1.724,18.613,18.613,0,0,1,3.963-.536,17.463,17.463,0,0,1,3.818.276,12.888,12.888,0,0,1,4.117,1.5.894.894,0,0,1-.452,1.666Z" fill="#0e1b47"/>
</svg>
